solid OpenSCAD_Model
  facet normal -1 0 0
    outer loop
      vertex -5 -5 0
      vertex -5 -5 3
      vertex -5 52 0
    endloop
  endfacet
  facet normal -1 0 0
    outer loop
      vertex -5 52 0
      vertex -5 -5 3
      vertex -5 52 3
    endloop
  endfacet
  facet normal 0 -1 0
    outer loop
      vertex -5 -5 3
      vertex -5 -5 0
      vertex 65 -5 0
    endloop
  endfacet
  facet normal 0 -1 0
    outer loop
      vertex 65 -5 3
      vertex -5 -5 3
      vertex 65 -5 0
    endloop
  endfacet
  facet normal 0 0 -1
    outer loop
      vertex 61.247 -1.56366 0
      vertex 65 -5 0
      vertex 59.555 -1.94986 0
    endloop
  endfacet
  facet normal 0 0 -1
    outer loop
      vertex 30.3708 50.6387 0
      vertex -5 52 0
      vertex 65 52 0
    endloop
  endfacet
  facet normal 0 0 -1
    outer loop
      vertex -5 -5 0
      vertex -5 52 0
      vertex -1.80194 0.867767 0
    endloop
  endfacet
  facet normal 0 0 -1
    outer loop
      vertex -5 -5 0
      vertex -1.80194 0.867767 0
      vertex -1.80194 -0.867767 0
    endloop
  endfacet
  facet normal 0 0 -1
    outer loop
      vertex 32 0 0
      vertex 65 -5 0
      vertex 31.247 -1.56366 0
    endloop
  endfacet
  facet normal 0 0 -1
    outer loop
      vertex -5 -5 0
      vertex -1.80194 -0.867767 0
      vertex -0.445042 -1.94986 0
    endloop
  endfacet
  facet normal 0 0 -1
    outer loop
      vertex -5 -5 0
      vertex -0.445042 -1.94986 0
      vertex 65 -5 0
    endloop
  endfacet
  facet normal 0 0 -1
    outer loop
      vertex -0.445042 -1.94986 0
      vertex 1.24698 -1.56366 0
      vertex 65 -5 0
    endloop
  endfacet
  facet normal 0 0 -1
    outer loop
      vertex 31.247 -1.56366 0
      vertex 65 -5 0
      vertex 29.555 -1.94986 0
    endloop
  endfacet
  facet normal 0 0 -1
    outer loop
      vertex -0.445042 1.94986 0
      vertex -5 52 0
      vertex 1.24698 1.56366 0
    endloop
  endfacet
  facet normal 0 0 -1
    outer loop
      vertex -1.80194 0.867767 0
      vertex -5 52 0
      vertex -0.445042 1.94986 0
    endloop
  endfacet
  facet normal 0 0 -1
    outer loop
      vertex 1.24698 1.56366 0
      vertex -5 52 0
      vertex 4.28044 25.4541 0
    endloop
  endfacet
  facet normal 0 0 -1
    outer loop
      vertex 1.24698 1.56366 0
      vertex 4.28044 25.4541 0
      vertex 4.28044 24.0434 0
    endloop
  endfacet
  facet normal 0 0 -1
    outer loop
      vertex 31.247 1.56366 0
      vertex 4.28044 24.0434 0
      vertex 65 -5 0
    endloop
  endfacet
  facet normal 0 0 -1
    outer loop
      vertex 4.28044 24.0434 0
      vertex 5.62208 23.6075 0
      vertex 65 -5 0
    endloop
  endfacet
  facet normal 0 0 -1
    outer loop
      vertex 5.62208 25.89 0
      vertex -5 52 0
      vertex 6.45126 24.7487 0
    endloop
  endfacet
  facet normal 0 0 -1
    outer loop
      vertex 4.28044 25.4541 0
      vertex -5 52 0
      vertex 5.62208 25.89 0
    endloop
  endfacet
  facet normal 0 0 -1
    outer loop
      vertex 13.1981 44.1322 0
      vertex -5 52 0
      vertex 13.1981 45.8678 0
    endloop
  endfacet
  facet normal 0 0 -1
    outer loop
      vertex 58.1981 0.867767 0
      vertex -5 52 0
      vertex 13.1981 44.1322 0
    endloop
  endfacet
  facet normal 0 0 -1
    outer loop
      vertex 16.247 46.5637 0
      vertex 65 52 0
      vertex 17 45 0
    endloop
  endfacet
  facet normal 0 0 -1
    outer loop
      vertex 44.555 46.9499 0
      vertex 16.247 43.4363 0
      vertex 65 52 0
    endloop
  endfacet
  facet normal 0 0 -1
    outer loop
      vertex 16.247 43.4363 0
      vertex 17 45 0
      vertex 65 52 0
    endloop
  endfacet
  facet normal 0 0 -1
    outer loop
      vertex 14.555 46.9499 0
      vertex -5 52 0
      vertex 16.247 46.5637 0
    endloop
  endfacet
  facet normal 0 0 -1
    outer loop
      vertex 29.555 -1.94986 0
      vertex 1.24698 1.56366 0
      vertex 28.1981 -0.867767 0
    endloop
  endfacet
  facet normal 0 0 -1
    outer loop
      vertex 13.1981 45.8678 0
      vertex -5 52 0
      vertex 14.555 46.9499 0
    endloop
  endfacet
  facet normal 0 0 -1
    outer loop
      vertex 1.24698 1.56366 0
      vertex 4.28044 24.0434 0
      vertex 28.1981 0.867767 0
    endloop
  endfacet
  facet normal 0 0 -1
    outer loop
      vertex 1.24698 1.56366 0
      vertex 28.1981 0.867767 0
      vertex 28.1981 -0.867767 0
    endloop
  endfacet
  facet normal 0 0 -1
    outer loop
      vertex 58.1981 0.867767 0
      vertex 16.247 43.4363 0
      vertex 59.555 1.94986 0
    endloop
  endfacet
  facet normal 0 0 -1
    outer loop
      vertex 2 0 0
      vertex 29.555 -1.94986 0
      vertex 65 -5 0
    endloop
  endfacet
  facet normal 0 0 -1
    outer loop
      vertex 6.45126 24.7487 0
      vertex 65 -5 0
      vertex 5.62208 23.6075 0
    endloop
  endfacet
  facet normal 0 0 -1
    outer loop
      vertex 31.247 1.56366 0
      vertex 65 -5 0
      vertex 32 0 0
    endloop
  endfacet
  facet normal 0 0 -1
    outer loop
      vertex 29.555 1.94986 0
      vertex 4.28044 24.0434 0
      vertex 31.247 1.56366 0
    endloop
  endfacet
  facet normal 0 0 -1
    outer loop
      vertex 31.2 49.4975 0
      vertex 65 52 0
      vertex 30.3708 48.3562 0
    endloop
  endfacet
  facet normal 0 0 -1
    outer loop
      vertex 28.1981 0.867767 0
      vertex 4.28044 24.0434 0
      vertex 29.555 1.94986 0
    endloop
  endfacet
  facet normal 0 0 -1
    outer loop
      vertex 16.247 46.5637 0
      vertex -5 52 0
      vertex 29.0292 50.2028 0
    endloop
  endfacet
  facet normal 0 0 -1
    outer loop
      vertex 16.247 46.5637 0
      vertex 29.0292 50.2028 0
      vertex 29.0292 48.7921 0
    endloop
  endfacet
  facet normal 0 0 -1
    outer loop
      vertex 16.247 46.5637 0
      vertex 29.0292 48.7921 0
      vertex 30.3708 48.3562 0
    endloop
  endfacet
  facet normal 0 0 -1
    outer loop
      vertex 16.247 46.5637 0
      vertex 30.3708 48.3562 0
      vertex 65 52 0
    endloop
  endfacet
  facet normal 0 0 -1
    outer loop
      vertex 30.3708 50.6387 0
      vertex 65 52 0
      vertex 31.2 49.4975 0
    endloop
  endfacet
  facet normal 0 0 -1
    outer loop
      vertex 29.0292 50.2028 0
      vertex -5 52 0
      vertex 30.3708 50.6387 0
    endloop
  endfacet
  facet normal 0 0 -1
    outer loop
      vertex 44.555 43.0501 0
      vertex 65 -5 0
      vertex 43.1981 44.1322 0
    endloop
  endfacet
  facet normal 0 0 -1
    outer loop
      vertex 43.1981 44.1322 0
      vertex 16.247 43.4363 0
      vertex 43.1981 45.8678 0
    endloop
  endfacet
  facet normal 0 0 -1
    outer loop
      vertex 61.247 1.56366 0
      vertex 16.247 43.4363 0
      vertex 43.1981 44.1322 0
    endloop
  endfacet
  facet normal 0 0 -1
    outer loop
      vertex 47 45 0
      vertex 65 52 0
      vertex 46.247 43.4363 0
    endloop
  endfacet
  facet normal 0 0 -1
    outer loop
      vertex 65 -5 0
      vertex 44.555 43.0501 0
      vertex 46.247 43.4363 0
    endloop
  endfacet
  facet normal 0 0 -1
    outer loop
      vertex 53.7779 25.4541 0
      vertex 46.247 43.4363 0
      vertex 65 52 0
    endloop
  endfacet
  facet normal 0 0 -1
    outer loop
      vertex 44.555 46.9499 0
      vertex 65 52 0
      vertex 46.247 46.5637 0
    endloop
  endfacet
  facet normal 0 0 -1
    outer loop
      vertex 47 45 0
      vertex 46.247 46.5637 0
      vertex 65 52 0
    endloop
  endfacet
  facet normal 0 0 -1
    outer loop
      vertex 43.1981 45.8678 0
      vertex 16.247 43.4363 0
      vertex 44.555 46.9499 0
    endloop
  endfacet
  facet normal 0 0 -1
    outer loop
      vertex 55.1196 23.6075 0
      vertex 65 -5 0
      vertex 53.7779 24.0434 0
    endloop
  endfacet
  facet normal 0 0 -1
    outer loop
      vertex 53.7779 24.0434 0
      vertex 46.247 43.4363 0
      vertex 53.7779 25.4541 0
    endloop
  endfacet
  facet normal 0 0 -1
    outer loop
      vertex 55.1196 25.89 0
      vertex 53.7779 25.4541 0
      vertex 65 52 0
    endloop
  endfacet
  facet normal 0 0 -1
    outer loop
      vertex 65 -5 0
      vertex 46.247 43.4363 0
      vertex 53.7779 24.0434 0
    endloop
  endfacet
  facet normal 0 0 -1
    outer loop
      vertex 55.1196 25.89 0
      vertex 65 52 0
      vertex 55.9487 24.7487 0
    endloop
  endfacet
  facet normal 0 0 -1
    outer loop
      vertex 58.1981 0.867767 0
      vertex 14.555 43.0501 0
      vertex 16.247 43.4363 0
    endloop
  endfacet
  facet normal 0 0 -1
    outer loop
      vertex 65 -5 0
      vertex 55.1196 23.6075 0
      vertex 55.9487 24.7487 0
    endloop
  endfacet
  facet normal 0 0 -1
    outer loop
      vertex 65 -5 0
      vertex 55.9487 24.7487 0
      vertex 65 52 0
    endloop
  endfacet
  facet normal 0 0 -1
    outer loop
      vertex 58.1981 0.867767 0
      vertex 13.1981 44.1322 0
      vertex 14.555 43.0501 0
    endloop
  endfacet
  facet normal 0 0 -1
    outer loop
      vertex 58.1981 -0.867767 0
      vertex -5 52 0
      vertex 58.1981 0.867767 0
    endloop
  endfacet
  facet normal 0 0 -1
    outer loop
      vertex 6.45126 24.7487 0
      vertex -5 52 0
      vertex 58.1981 -0.867767 0
    endloop
  endfacet
  facet normal 0 0 -1
    outer loop
      vertex 6.45126 24.7487 0
      vertex 58.1981 -0.867767 0
      vertex 59.555 -1.94986 0
    endloop
  endfacet
  facet normal 0 0 -1
    outer loop
      vertex 6.45126 24.7487 0
      vertex 59.555 -1.94986 0
      vertex 65 -5 0
    endloop
  endfacet
  facet normal 0 0 -1
    outer loop
      vertex 62 0 0
      vertex 65 -5 0
      vertex 61.247 -1.56366 0
    endloop
  endfacet
  facet normal 0 0 -1
    outer loop
      vertex 65 -5 0
      vertex 62 0 0
      vertex 43.1981 44.1322 0
    endloop
  endfacet
  facet normal 0 0 -1
    outer loop
      vertex 62 0 0
      vertex 61.247 1.56366 0
      vertex 43.1981 44.1322 0
    endloop
  endfacet
  facet normal 0 0 -1
    outer loop
      vertex 59.555 1.94986 0
      vertex 16.247 43.4363 0
      vertex 61.247 1.56366 0
    endloop
  endfacet
  facet normal 0 0 -1
    outer loop
      vertex 2 0 0
      vertex 65 -5 0
      vertex 1.24698 -1.56366 0
    endloop
  endfacet
  facet normal 0 0 -1
    outer loop
      vertex 1.24698 1.56366 0
      vertex 29.555 -1.94986 0
      vertex 2 0 0
    endloop
  endfacet
  facet normal 0 1 0
    outer loop
      vertex -5 52 0
      vertex -5 52 3
      vertex 65 52 0
    endloop
  endfacet
  facet normal 0 1 0
    outer loop
      vertex 65 52 0
      vertex -5 52 3
      vertex 65 52 3
    endloop
  endfacet
  facet normal 0 0 1
    outer loop
      vertex 1.24698 -1.56366 3
      vertex -5 -5 3
      vertex 65 -5 3
    endloop
  endfacet
  facet normal 0 0 1
    outer loop
      vertex 6.45126 24.7487 3
      vertex 5.62208 23.6075 3
      vertex 65 -5 3
    endloop
  endfacet
  facet normal 0 0 1
    outer loop
      vertex -5 52 3
      vertex -5 -5 3
      vertex -1.80194 -0.867767 3
    endloop
  endfacet
  facet normal 0 0 1
    outer loop
      vertex 29.555 -1.94986 3
      vertex -0.445042 1.94986 3
      vertex 1.24698 1.56366 3
    endloop
  endfacet
  facet normal 0 0 1
    outer loop
      vertex -5 52 3
      vertex -1.80194 -0.867767 3
      vertex -1.80194 0.867767 3
    endloop
  endfacet
  facet normal 0 0 1
    outer loop
      vertex -5 52 3
      vertex -1.80194 0.867767 3
      vertex -0.445042 1.94986 3
    endloop
  endfacet
  facet normal 0 0 1
    outer loop
      vertex 31.247 1.56366 3
      vertex 32 0 3
      vertex 65 -5 3
    endloop
  endfacet
  facet normal 0 0 1
    outer loop
      vertex 29.555 -1.94986 3
      vertex 2 0 3
      vertex 65 -5 3
    endloop
  endfacet
  facet normal 0 0 1
    outer loop
      vertex -0.445042 -1.94986 3
      vertex -5 -5 3
      vertex 1.24698 -1.56366 3
    endloop
  endfacet
  facet normal 0 0 1
    outer loop
      vertex -1.80194 -0.867767 3
      vertex -5 -5 3
      vertex -0.445042 -1.94986 3
    endloop
  endfacet
  facet normal 0 0 1
    outer loop
      vertex 5.62208 23.6075 3
      vertex 4.28044 24.0434 3
      vertex 65 -5 3
    endloop
  endfacet
  facet normal 0 0 1
    outer loop
      vertex -5 52 3
      vertex -0.445042 1.94986 3
      vertex 4.28044 24.0434 3
    endloop
  endfacet
  facet normal 0 0 1
    outer loop
      vertex 16.247 46.5637 3
      vertex 17 45 3
      vertex 65 52 3
    endloop
  endfacet
  facet normal 0 0 1
    outer loop
      vertex -5 52 3
      vertex 4.28044 24.0434 3
      vertex 4.28044 25.4541 3
    endloop
  endfacet
  facet normal 0 0 1
    outer loop
      vertex 59.555 -1.94986 3
      vertex 5.62208 25.89 3
      vertex 65 -5 3
    endloop
  endfacet
  facet normal 0 0 1
    outer loop
      vertex -5 52 3
      vertex 4.28044 25.4541 3
      vertex 5.62208 25.89 3
    endloop
  endfacet
  facet normal 0 0 1
    outer loop
      vertex 5.62208 25.89 3
      vertex 6.45126 24.7487 3
      vertex 65 -5 3
    endloop
  endfacet
  facet normal 0 0 1
    outer loop
      vertex 61.247 -1.56366 3
      vertex 59.555 -1.94986 3
      vertex 65 -5 3
    endloop
  endfacet
  facet normal 0 0 1
    outer loop
      vertex 13.1981 45.8678 3
      vertex -5 52 3
      vertex 13.1981 44.1322 3
    endloop
  endfacet
  facet normal 0 0 1
    outer loop
      vertex 14.555 46.9499 3
      vertex -5 52 3
      vertex 13.1981 45.8678 3
    endloop
  endfacet
  facet normal 0 0 1
    outer loop
      vertex 29.0292 48.7921 3
      vertex -5 52 3
      vertex 14.555 46.9499 3
    endloop
  endfacet
  facet normal 0 0 1
    outer loop
      vertex 17 45 3
      vertex 16.247 43.4363 3
      vertex 65 52 3
    endloop
  endfacet
  facet normal 0 0 1
    outer loop
      vertex 30.3708 48.3562 3
      vertex 14.555 46.9499 3
      vertex 16.247 46.5637 3
    endloop
  endfacet
  facet normal 0 0 1
    outer loop
      vertex 62 0 3
      vertex 61.247 -1.56366 3
      vertex 65 -5 3
    endloop
  endfacet
  facet normal 0 0 1
    outer loop
      vertex 30.3708 48.3562 3
      vertex 29.0292 48.7921 3
      vertex 14.555 46.9499 3
    endloop
  endfacet
  facet normal 0 0 1
    outer loop
      vertex 4.28044 24.0434 3
      vertex -0.445042 1.94986 3
      vertex 28.1981 -0.867767 3
    endloop
  endfacet
  facet normal 0 0 1
    outer loop
      vertex 32 0 3
      vertex 31.247 -1.56366 3
      vertex 65 -5 3
    endloop
  endfacet
  facet normal 0 0 1
    outer loop
      vertex 4.28044 24.0434 3
      vertex 28.1981 -0.867767 3
      vertex 28.1981 0.867767 3
    endloop
  endfacet
  facet normal 0 0 1
    outer loop
      vertex 4.28044 24.0434 3
      vertex 29.555 1.94986 3
      vertex 65 -5 3
    endloop
  endfacet
  facet normal 0 0 1
    outer loop
      vertex 4.28044 24.0434 3
      vertex 28.1981 0.867767 3
      vertex 29.555 1.94986 3
    endloop
  endfacet
  facet normal 0 0 1
    outer loop
      vertex 29.555 1.94986 3
      vertex 31.247 1.56366 3
      vertex 65 -5 3
    endloop
  endfacet
  facet normal 0 0 1
    outer loop
      vertex 55.1196 23.6075 3
      vertex 53.7779 24.0434 3
      vertex 65 -5 3
    endloop
  endfacet
  facet normal 0 0 1
    outer loop
      vertex 29.555 -1.94986 3
      vertex 28.1981 -0.867767 3
      vertex -0.445042 1.94986 3
    endloop
  endfacet
  facet normal 0 0 1
    outer loop
      vertex 2 0 3
      vertex 1.24698 -1.56366 3
      vertex 65 -5 3
    endloop
  endfacet
  facet normal 0 0 1
    outer loop
      vertex 29.0292 50.2028 3
      vertex -5 52 3
      vertex 29.0292 48.7921 3
    endloop
  endfacet
  facet normal 0 0 1
    outer loop
      vertex 30.3708 50.6387 3
      vertex -5 52 3
      vertex 29.0292 50.2028 3
    endloop
  endfacet
  facet normal 0 0 1
    outer loop
      vertex 31.2 49.4975 3
      vertex 30.3708 48.3562 3
      vertex 65 52 3
    endloop
  endfacet
  facet normal 0 0 1
    outer loop
      vertex 65 52 3
      vertex -5 52 3
      vertex 30.3708 50.6387 3
    endloop
  endfacet
  facet normal 0 0 1
    outer loop
      vertex 44.555 46.9499 3
      vertex 46.247 46.5637 3
      vertex 65 52 3
    endloop
  endfacet
  facet normal 0 0 1
    outer loop
      vertex 65 52 3
      vertex 30.3708 48.3562 3
      vertex 16.247 46.5637 3
    endloop
  endfacet
  facet normal 0 0 1
    outer loop
      vertex 30.3708 50.6387 3
      vertex 31.2 49.4975 3
      vertex 65 52 3
    endloop
  endfacet
  facet normal 0 0 1
    outer loop
      vertex 44.555 43.0501 3
      vertex 43.1981 44.1322 3
      vertex 65 -5 3
    endloop
  endfacet
  facet normal 0 0 1
    outer loop
      vertex 43.1981 45.8678 3
      vertex 16.247 43.4363 3
      vertex 43.1981 44.1322 3
    endloop
  endfacet
  facet normal 0 0 1
    outer loop
      vertex 44.555 46.9499 3
      vertex 16.247 43.4363 3
      vertex 43.1981 45.8678 3
    endloop
  endfacet
  facet normal 0 0 1
    outer loop
      vertex 46.247 46.5637 3
      vertex 47 45 3
      vertex 65 52 3
    endloop
  endfacet
  facet normal 0 0 1
    outer loop
      vertex 65 52 3
      vertex 16.247 43.4363 3
      vertex 44.555 46.9499 3
    endloop
  endfacet
  facet normal 0 0 1
    outer loop
      vertex 58.1981 0.867767 3
      vertex 14.555 43.0501 3
      vertex 13.1981 44.1322 3
    endloop
  endfacet
  facet normal 0 0 1
    outer loop
      vertex 55.9487 24.7487 3
      vertex 55.1196 23.6075 3
      vertex 65 -5 3
    endloop
  endfacet
  facet normal 0 0 1
    outer loop
      vertex 53.7779 24.0434 3
      vertex 46.247 43.4363 3
      vertex 65 -5 3
    endloop
  endfacet
  facet normal 0 0 1
    outer loop
      vertex 46.247 43.4363 3
      vertex 44.555 43.0501 3
      vertex 65 -5 3
    endloop
  endfacet
  facet normal 0 0 1
    outer loop
      vertex 47 45 3
      vertex 46.247 43.4363 3
      vertex 53.7779 24.0434 3
    endloop
  endfacet
  facet normal 0 0 1
    outer loop
      vertex 53.7779 25.4541 3
      vertex 55.1196 25.89 3
      vertex 47 45 3
    endloop
  endfacet
  facet normal 0 0 1
    outer loop
      vertex 47 45 3
      vertex 53.7779 24.0434 3
      vertex 53.7779 25.4541 3
    endloop
  endfacet
  facet normal 0 0 1
    outer loop
      vertex 58.1981 -0.867767 3
      vertex 58.1981 0.867767 3
      vertex -5 52 3
    endloop
  endfacet
  facet normal 0 0 1
    outer loop
      vertex 65 52 3
      vertex 47 45 3
      vertex 55.1196 25.89 3
    endloop
  endfacet
  facet normal 0 0 1
    outer loop
      vertex 65 52 3
      vertex 55.9487 24.7487 3
      vertex 65 -5 3
    endloop
  endfacet
  facet normal 0 0 1
    outer loop
      vertex 65 52 3
      vertex 55.1196 25.89 3
      vertex 55.9487 24.7487 3
    endloop
  endfacet
  facet normal 0 0 1
    outer loop
      vertex -5 52 3
      vertex 5.62208 25.89 3
      vertex 58.1981 -0.867767 3
    endloop
  endfacet
  facet normal 0 0 1
    outer loop
      vertex 13.1981 44.1322 3
      vertex -5 52 3
      vertex 58.1981 0.867767 3
    endloop
  endfacet
  facet normal 0 0 1
    outer loop
      vertex 43.1981 44.1322 3
      vertex 16.247 43.4363 3
      vertex 59.555 1.94986 3
    endloop
  endfacet
  facet normal 0 0 1
    outer loop
      vertex 43.1981 44.1322 3
      vertex 61.247 1.56366 3
      vertex 65 -5 3
    endloop
  endfacet
  facet normal 0 0 1
    outer loop
      vertex 43.1981 44.1322 3
      vertex 59.555 1.94986 3
      vertex 61.247 1.56366 3
    endloop
  endfacet
  facet normal 0 0 1
    outer loop
      vertex 61.247 1.56366 3
      vertex 62 0 3
      vertex 65 -5 3
    endloop
  endfacet
  facet normal 0 0 1
    outer loop
      vertex 58.1981 -0.867767 3
      vertex 5.62208 25.89 3
      vertex 59.555 -1.94986 3
    endloop
  endfacet
  facet normal 0 0 1
    outer loop
      vertex 31.247 -1.56366 3
      vertex 29.555 -1.94986 3
      vertex 65 -5 3
    endloop
  endfacet
  facet normal 0 0 1
    outer loop
      vertex 58.1981 0.867767 3
      vertex 16.247 43.4363 3
      vertex 14.555 43.0501 3
    endloop
  endfacet
  facet normal 0 0 1
    outer loop
      vertex 1.24698 1.56366 3
      vertex 2 0 3
      vertex 29.555 -1.94986 3
    endloop
  endfacet
  facet normal 0 0 1
    outer loop
      vertex 58.1981 0.867767 3
      vertex 59.555 1.94986 3
      vertex 16.247 43.4363 3
    endloop
  endfacet
  facet normal 1 0 0
    outer loop
      vertex 65 -5 3
      vertex 65 -5 0
      vertex 65 52 0
    endloop
  endfacet
  facet normal 1 0 0
    outer loop
      vertex 65 52 3
      vertex 65 -5 3
      vertex 65 52 0
    endloop
  endfacet
  facet normal 0.62349 -0.781831 0
    outer loop
      vertex -0.445042 1.94986 0
      vertex -0.445042 1.94986 3
      vertex -1.80194 0.867767 3
    endloop
  endfacet
  facet normal 0.62349 -0.781831 0
    outer loop
      vertex -1.80194 0.867767 0
      vertex -0.445042 1.94986 0
      vertex -1.80194 0.867767 3
    endloop
  endfacet
  facet normal 1 0 0
    outer loop
      vertex -1.80194 0.867767 0
      vertex -1.80194 0.867767 3
      vertex -1.80194 -0.867767 3
    endloop
  endfacet
  facet normal 1 0 0
    outer loop
      vertex -1.80194 -0.867767 0
      vertex -1.80194 0.867767 0
      vertex -1.80194 -0.867767 3
    endloop
  endfacet
  facet normal -0.222521 -0.974928 0
    outer loop
      vertex 1.24698 1.56366 0
      vertex 1.24698 1.56366 3
      vertex -0.445042 1.94986 3
    endloop
  endfacet
  facet normal -0.222521 -0.974928 0
    outer loop
      vertex -0.445042 1.94986 0
      vertex 1.24698 1.56366 0
      vertex -0.445042 1.94986 3
    endloop
  endfacet
  facet normal -0.900969 -0.433884 0
    outer loop
      vertex 2 0 3
      vertex 1.24698 1.56366 3
      vertex 2 0 0
    endloop
  endfacet
  facet normal -0.900969 -0.433884 0
    outer loop
      vertex 2 0 0
      vertex 1.24698 1.56366 3
      vertex 1.24698 1.56366 0
    endloop
  endfacet
  facet normal -0.900969 0.433884 0
    outer loop
      vertex 2 0 3
      vertex 2 0 0
      vertex 1.24698 -1.56366 3
    endloop
  endfacet
  facet normal -0.900969 0.433884 0
    outer loop
      vertex 1.24698 -1.56366 3
      vertex 2 0 0
      vertex 1.24698 -1.56366 0
    endloop
  endfacet
  facet normal -0.222521 0.974928 0
    outer loop
      vertex 1.24698 -1.56366 3
      vertex 1.24698 -1.56366 0
      vertex -0.445042 -1.94986 3
    endloop
  endfacet
  facet normal -0.222521 0.974928 0
    outer loop
      vertex -0.445042 -1.94986 3
      vertex 1.24698 -1.56366 0
      vertex -0.445042 -1.94986 0
    endloop
  endfacet
  facet normal 0.62349 0.781831 0
    outer loop
      vertex -0.445042 -1.94986 3
      vertex -0.445042 -1.94986 0
      vertex -1.80194 -0.867767 3
    endloop
  endfacet
  facet normal 0.62349 0.781831 0
    outer loop
      vertex -1.80194 -0.867767 3
      vertex -0.445042 -1.94986 0
      vertex -1.80194 -0.867767 0
    endloop
  endfacet
  facet normal 0.309017 -0.951056 0
    outer loop
      vertex 5.62208 25.89 0
      vertex 5.62208 25.89 3
      vertex 4.28044 25.4541 3
    endloop
  endfacet
  facet normal 0.309017 -0.951056 0
    outer loop
      vertex 4.28044 25.4541 0
      vertex 5.62208 25.89 0
      vertex 4.28044 25.4541 3
    endloop
  endfacet
  facet normal 1 0 0
    outer loop
      vertex 4.28044 25.4541 0
      vertex 4.28044 25.4541 3
      vertex 4.28044 24.0434 3
    endloop
  endfacet
  facet normal 1 0 0
    outer loop
      vertex 4.28044 24.0434 0
      vertex 4.28044 25.4541 0
      vertex 4.28044 24.0434 3
    endloop
  endfacet
  facet normal -0.809017 -0.587785 0
    outer loop
      vertex 6.45126 24.7487 3
      vertex 5.62208 25.89 3
      vertex 6.45126 24.7487 0
    endloop
  endfacet
  facet normal -0.809017 -0.587785 0
    outer loop
      vertex 6.45126 24.7487 0
      vertex 5.62208 25.89 3
      vertex 5.62208 25.89 0
    endloop
  endfacet
  facet normal -0.809017 0.587785 0
    outer loop
      vertex 6.45126 24.7487 3
      vertex 6.45126 24.7487 0
      vertex 5.62208 23.6075 3
    endloop
  endfacet
  facet normal -0.809017 0.587785 0
    outer loop
      vertex 5.62208 23.6075 3
      vertex 6.45126 24.7487 0
      vertex 5.62208 23.6075 0
    endloop
  endfacet
  facet normal 0.309017 0.951056 0
    outer loop
      vertex 5.62208 23.6075 3
      vertex 5.62208 23.6075 0
      vertex 4.28044 24.0434 3
    endloop
  endfacet
  facet normal 0.309017 0.951056 0
    outer loop
      vertex 4.28044 24.0434 3
      vertex 5.62208 23.6075 0
      vertex 4.28044 24.0434 0
    endloop
  endfacet
  facet normal 0.62349 -0.781831 0
    outer loop
      vertex 14.555 46.9499 0
      vertex 14.555 46.9499 3
      vertex 13.1981 45.8678 3
    endloop
  endfacet
  facet normal 0.62349 -0.781831 0
    outer loop
      vertex 13.1981 45.8678 0
      vertex 14.555 46.9499 0
      vertex 13.1981 45.8678 3
    endloop
  endfacet
  facet normal 1 0 0
    outer loop
      vertex 13.1981 45.8678 0
      vertex 13.1981 45.8678 3
      vertex 13.1981 44.1322 3
    endloop
  endfacet
  facet normal 1 0 0
    outer loop
      vertex 13.1981 44.1322 0
      vertex 13.1981 45.8678 0
      vertex 13.1981 44.1322 3
    endloop
  endfacet
  facet normal -0.222521 -0.974928 0
    outer loop
      vertex 16.247 46.5637 0
      vertex 16.247 46.5637 3
      vertex 14.555 46.9499 3
    endloop
  endfacet
  facet normal -0.222521 -0.974928 0
    outer loop
      vertex 14.555 46.9499 0
      vertex 16.247 46.5637 0
      vertex 14.555 46.9499 3
    endloop
  endfacet
  facet normal -0.900969 -0.433884 0
    outer loop
      vertex 17 45 3
      vertex 16.247 46.5637 3
      vertex 17 45 0
    endloop
  endfacet
  facet normal -0.900969 -0.433884 0
    outer loop
      vertex 17 45 0
      vertex 16.247 46.5637 3
      vertex 16.247 46.5637 0
    endloop
  endfacet
  facet normal -0.900969 0.433884 0
    outer loop
      vertex 17 45 3
      vertex 17 45 0
      vertex 16.247 43.4363 3
    endloop
  endfacet
  facet normal -0.900969 0.433884 0
    outer loop
      vertex 16.247 43.4363 3
      vertex 17 45 0
      vertex 16.247 43.4363 0
    endloop
  endfacet
  facet normal -0.222521 0.974928 0
    outer loop
      vertex 16.247 43.4363 3
      vertex 16.247 43.4363 0
      vertex 14.555 43.0501 3
    endloop
  endfacet
  facet normal -0.222521 0.974928 0
    outer loop
      vertex 14.555 43.0501 3
      vertex 16.247 43.4363 0
      vertex 14.555 43.0501 0
    endloop
  endfacet
  facet normal 0.62349 0.781831 0
    outer loop
      vertex 14.555 43.0501 3
      vertex 14.555 43.0501 0
      vertex 13.1981 44.1322 3
    endloop
  endfacet
  facet normal 0.62349 0.781831 0
    outer loop
      vertex 13.1981 44.1322 3
      vertex 14.555 43.0501 0
      vertex 13.1981 44.1322 0
    endloop
  endfacet
  facet normal 0.62349 -0.781831 0
    outer loop
      vertex 29.555 1.94986 0
      vertex 29.555 1.94986 3
      vertex 28.1981 0.867767 3
    endloop
  endfacet
  facet normal 0.62349 -0.781831 0
    outer loop
      vertex 28.1981 0.867767 0
      vertex 29.555 1.94986 0
      vertex 28.1981 0.867767 3
    endloop
  endfacet
  facet normal 1 0 0
    outer loop
      vertex 28.1981 0.867767 0
      vertex 28.1981 0.867767 3
      vertex 28.1981 -0.867767 3
    endloop
  endfacet
  facet normal 1 0 0
    outer loop
      vertex 28.1981 -0.867767 0
      vertex 28.1981 0.867767 0
      vertex 28.1981 -0.867767 3
    endloop
  endfacet
  facet normal -0.222521 -0.974928 0
    outer loop
      vertex 31.247 1.56366 0
      vertex 31.247 1.56366 3
      vertex 29.555 1.94986 3
    endloop
  endfacet
  facet normal -0.222521 -0.974928 0
    outer loop
      vertex 29.555 1.94986 0
      vertex 31.247 1.56366 0
      vertex 29.555 1.94986 3
    endloop
  endfacet
  facet normal -0.900969 -0.433884 0
    outer loop
      vertex 32 0 3
      vertex 31.247 1.56366 3
      vertex 32 0 0
    endloop
  endfacet
  facet normal -0.900969 -0.433884 0
    outer loop
      vertex 32 0 0
      vertex 31.247 1.56366 3
      vertex 31.247 1.56366 0
    endloop
  endfacet
  facet normal -0.900969 0.433884 0
    outer loop
      vertex 32 0 3
      vertex 32 0 0
      vertex 31.247 -1.56366 3
    endloop
  endfacet
  facet normal -0.900969 0.433884 0
    outer loop
      vertex 31.247 -1.56366 3
      vertex 32 0 0
      vertex 31.247 -1.56366 0
    endloop
  endfacet
  facet normal -0.222521 0.974928 0
    outer loop
      vertex 31.247 -1.56366 3
      vertex 31.247 -1.56366 0
      vertex 29.555 -1.94986 3
    endloop
  endfacet
  facet normal -0.222521 0.974928 0
    outer loop
      vertex 29.555 -1.94986 3
      vertex 31.247 -1.56366 0
      vertex 29.555 -1.94986 0
    endloop
  endfacet
  facet normal 0.62349 0.781831 0
    outer loop
      vertex 29.555 -1.94986 3
      vertex 29.555 -1.94986 0
      vertex 28.1981 -0.867767 3
    endloop
  endfacet
  facet normal 0.62349 0.781831 0
    outer loop
      vertex 28.1981 -0.867767 3
      vertex 29.555 -1.94986 0
      vertex 28.1981 -0.867767 0
    endloop
  endfacet
  facet normal 0.309017 -0.951056 0
    outer loop
      vertex 30.3708 50.6387 0
      vertex 30.3708 50.6387 3
      vertex 29.0292 50.2028 3
    endloop
  endfacet
  facet normal 0.309017 -0.951056 0
    outer loop
      vertex 29.0292 50.2028 0
      vertex 30.3708 50.6387 0
      vertex 29.0292 50.2028 3
    endloop
  endfacet
  facet normal 1 0 0
    outer loop
      vertex 29.0292 50.2028 0
      vertex 29.0292 50.2028 3
      vertex 29.0292 48.7921 3
    endloop
  endfacet
  facet normal 1 0 0
    outer loop
      vertex 29.0292 48.7921 0
      vertex 29.0292 50.2028 0
      vertex 29.0292 48.7921 3
    endloop
  endfacet
  facet normal -0.809017 -0.587785 0
    outer loop
      vertex 31.2 49.4975 3
      vertex 30.3708 50.6387 3
      vertex 31.2 49.4975 0
    endloop
  endfacet
  facet normal -0.809017 -0.587785 0
    outer loop
      vertex 31.2 49.4975 0
      vertex 30.3708 50.6387 3
      vertex 30.3708 50.6387 0
    endloop
  endfacet
  facet normal -0.809017 0.587785 0
    outer loop
      vertex 31.2 49.4975 3
      vertex 31.2 49.4975 0
      vertex 30.3708 48.3562 3
    endloop
  endfacet
  facet normal -0.809017 0.587785 0
    outer loop
      vertex 30.3708 48.3562 3
      vertex 31.2 49.4975 0
      vertex 30.3708 48.3562 0
    endloop
  endfacet
  facet normal 0.309017 0.951056 0
    outer loop
      vertex 30.3708 48.3562 3
      vertex 30.3708 48.3562 0
      vertex 29.0292 48.7921 3
    endloop
  endfacet
  facet normal 0.309017 0.951056 0
    outer loop
      vertex 29.0292 48.7921 3
      vertex 30.3708 48.3562 0
      vertex 29.0292 48.7921 0
    endloop
  endfacet
  facet normal 0.62349 -0.781831 0
    outer loop
      vertex 44.555 46.9499 0
      vertex 44.555 46.9499 3
      vertex 43.1981 45.8678 3
    endloop
  endfacet
  facet normal 0.62349 -0.781831 0
    outer loop
      vertex 43.1981 45.8678 0
      vertex 44.555 46.9499 0
      vertex 43.1981 45.8678 3
    endloop
  endfacet
  facet normal 1 0 0
    outer loop
      vertex 43.1981 45.8678 0
      vertex 43.1981 45.8678 3
      vertex 43.1981 44.1322 3
    endloop
  endfacet
  facet normal 1 0 0
    outer loop
      vertex 43.1981 44.1322 0
      vertex 43.1981 45.8678 0
      vertex 43.1981 44.1322 3
    endloop
  endfacet
  facet normal -0.222521 -0.974928 0
    outer loop
      vertex 46.247 46.5637 0
      vertex 46.247 46.5637 3
      vertex 44.555 46.9499 3
    endloop
  endfacet
  facet normal -0.222521 -0.974928 0
    outer loop
      vertex 44.555 46.9499 0
      vertex 46.247 46.5637 0
      vertex 44.555 46.9499 3
    endloop
  endfacet
  facet normal -0.900969 -0.433884 0
    outer loop
      vertex 47 45 3
      vertex 46.247 46.5637 3
      vertex 47 45 0
    endloop
  endfacet
  facet normal -0.900969 -0.433884 0
    outer loop
      vertex 47 45 0
      vertex 46.247 46.5637 3
      vertex 46.247 46.5637 0
    endloop
  endfacet
  facet normal -0.900969 0.433884 0
    outer loop
      vertex 47 45 3
      vertex 47 45 0
      vertex 46.247 43.4363 3
    endloop
  endfacet
  facet normal -0.900969 0.433884 0
    outer loop
      vertex 46.247 43.4363 3
      vertex 47 45 0
      vertex 46.247 43.4363 0
    endloop
  endfacet
  facet normal -0.222521 0.974928 0
    outer loop
      vertex 46.247 43.4363 3
      vertex 46.247 43.4363 0
      vertex 44.555 43.0501 3
    endloop
  endfacet
  facet normal -0.222521 0.974928 0
    outer loop
      vertex 44.555 43.0501 3
      vertex 46.247 43.4363 0
      vertex 44.555 43.0501 0
    endloop
  endfacet
  facet normal 0.62349 0.781831 0
    outer loop
      vertex 44.555 43.0501 3
      vertex 44.555 43.0501 0
      vertex 43.1981 44.1322 3
    endloop
  endfacet
  facet normal 0.62349 0.781831 0
    outer loop
      vertex 43.1981 44.1322 3
      vertex 44.555 43.0501 0
      vertex 43.1981 44.1322 0
    endloop
  endfacet
  facet normal 0.309017 -0.951056 0
    outer loop
      vertex 55.1196 25.89 0
      vertex 55.1196 25.89 3
      vertex 53.7779 25.4541 3
    endloop
  endfacet
  facet normal 0.309017 -0.951056 0
    outer loop
      vertex 53.7779 25.4541 0
      vertex 55.1196 25.89 0
      vertex 53.7779 25.4541 3
    endloop
  endfacet
  facet normal 1 0 0
    outer loop
      vertex 53.7779 25.4541 0
      vertex 53.7779 25.4541 3
      vertex 53.7779 24.0434 3
    endloop
  endfacet
  facet normal 1 0 0
    outer loop
      vertex 53.7779 24.0434 0
      vertex 53.7779 25.4541 0
      vertex 53.7779 24.0434 3
    endloop
  endfacet
  facet normal -0.809017 -0.587785 0
    outer loop
      vertex 55.9487 24.7487 3
      vertex 55.1196 25.89 3
      vertex 55.9487 24.7487 0
    endloop
  endfacet
  facet normal -0.809017 -0.587785 0
    outer loop
      vertex 55.9487 24.7487 0
      vertex 55.1196 25.89 3
      vertex 55.1196 25.89 0
    endloop
  endfacet
  facet normal -0.809017 0.587785 0
    outer loop
      vertex 55.9487 24.7487 3
      vertex 55.9487 24.7487 0
      vertex 55.1196 23.6075 3
    endloop
  endfacet
  facet normal -0.809017 0.587785 0
    outer loop
      vertex 55.1196 23.6075 3
      vertex 55.9487 24.7487 0
      vertex 55.1196 23.6075 0
    endloop
  endfacet
  facet normal 0.309017 0.951056 0
    outer loop
      vertex 55.1196 23.6075 3
      vertex 55.1196 23.6075 0
      vertex 53.7779 24.0434 3
    endloop
  endfacet
  facet normal 0.309017 0.951056 0
    outer loop
      vertex 53.7779 24.0434 3
      vertex 55.1196 23.6075 0
      vertex 53.7779 24.0434 0
    endloop
  endfacet
  facet normal 0.62349 -0.781831 0
    outer loop
      vertex 59.555 1.94986 0
      vertex 59.555 1.94986 3
      vertex 58.1981 0.867767 3
    endloop
  endfacet
  facet normal 0.62349 -0.781831 0
    outer loop
      vertex 58.1981 0.867767 0
      vertex 59.555 1.94986 0
      vertex 58.1981 0.867767 3
    endloop
  endfacet
  facet normal 1 0 0
    outer loop
      vertex 58.1981 0.867767 0
      vertex 58.1981 0.867767 3
      vertex 58.1981 -0.867767 3
    endloop
  endfacet
  facet normal 1 0 0
    outer loop
      vertex 58.1981 -0.867767 0
      vertex 58.1981 0.867767 0
      vertex 58.1981 -0.867767 3
    endloop
  endfacet
  facet normal -0.222521 -0.974928 0
    outer loop
      vertex 61.247 1.56366 0
      vertex 61.247 1.56366 3
      vertex 59.555 1.94986 3
    endloop
  endfacet
  facet normal -0.222521 -0.974928 0
    outer loop
      vertex 59.555 1.94986 0
      vertex 61.247 1.56366 0
      vertex 59.555 1.94986 3
    endloop
  endfacet
  facet normal -0.900969 -0.433884 0
    outer loop
      vertex 62 0 3
      vertex 61.247 1.56366 3
      vertex 62 0 0
    endloop
  endfacet
  facet normal -0.900969 -0.433884 0
    outer loop
      vertex 62 0 0
      vertex 61.247 1.56366 3
      vertex 61.247 1.56366 0
    endloop
  endfacet
  facet normal -0.900969 0.433884 0
    outer loop
      vertex 62 0 3
      vertex 62 0 0
      vertex 61.247 -1.56366 3
    endloop
  endfacet
  facet normal -0.900969 0.433884 0
    outer loop
      vertex 61.247 -1.56366 3
      vertex 62 0 0
      vertex 61.247 -1.56366 0
    endloop
  endfacet
  facet normal -0.222521 0.974928 0
    outer loop
      vertex 61.247 -1.56366 3
      vertex 61.247 -1.56366 0
      vertex 59.555 -1.94986 3
    endloop
  endfacet
  facet normal -0.222521 0.974928 0
    outer loop
      vertex 59.555 -1.94986 3
      vertex 61.247 -1.56366 0
      vertex 59.555 -1.94986 0
    endloop
  endfacet
  facet normal 0.62349 0.781831 0
    outer loop
      vertex 59.555 -1.94986 3
      vertex 59.555 -1.94986 0
      vertex 58.1981 -0.867767 3
    endloop
  endfacet
  facet normal 0.62349 0.781831 0
    outer loop
      vertex 58.1981 -0.867767 3
      vertex 59.555 -1.94986 0
      vertex 58.1981 -0.867767 0
    endloop
  endfacet
endsolid OpenSCAD_Model
